<svg width="82" height="856" viewBox="0 0 82 856" fill="none" xmlns="http://www.w3.org/2000/svg">
<g clip-path="url(#clip0_61_400)">
<path d="M39.8999 77.9381C60.4462 78.5903 77.5941 61.6704 78.199 40.153C78.802 18.6412 62.6387 0.669995 42.0924 0.0181133C21.5561 -0.631756 4.40404 16.2858 3.80115 37.7937C3.19425 59.3152 19.3636 77.2866 39.8999 77.9381Z" fill="#2D36D6"/>
<path d="M33.8292 101.541L34.4196 100.72L34.3893 99.3661L33.7081 98.6359L29.8629 96.4912L29.1665 94.8484L29.3028 93.4185L30.1657 92.2473L32.2699 91.5476L34.5861 91.7301L35.2976 91.6693L35.1765 92.445L35.1916 94.4377L34.6315 94.5594L34.2379 92.5515L32.4516 92.3081L30.9226 92.8862L30.5744 93.8901L30.9074 95.183L34.7223 97.2822L35.8426 98.4534L35.9031 100.857L34.7375 102.317L32.5121 102.804L29.7115 102.469L29 102.363L29.1211 101.769L29.2574 99.7768L29.8175 99.6551L30.0597 101.663L31.9066 101.982L33.8292 101.541ZM38.8237 101.648L39.959 101.937L41.488 101.054L41.4275 99.001H40.1104L38.9448 99.4725L38.4149 100.416L38.8237 101.648ZM42.7294 99.7311L42.8354 101.876L43.8799 102.028L43.7739 102.53L41.6697 102.712L41.4729 101.815H41.3972L39.8985 102.712H38.3241L37.2644 101.937L36.9465 100.446L37.6126 99.2596L39.4292 98.4686L41.4275 98.3926L41.3669 96.4912L41.0793 95.5481L39.8531 95.1982L38.3846 95.5481L38.3392 97.1605L37.7488 97.2822L37.3552 95.1982L39.0962 94.6811L41.049 94.5898L42.2298 95.1678L42.7143 96.476L42.7294 99.7311ZM50.1486 101.815H50.0729L48.3926 102.804L46.7122 102.621L45.6071 101.83L44.7291 100.02L44.7139 97.4343L45.2892 96.2326L47.0301 94.818L48.7105 94.5898L50.1789 94.9701L50.0881 92.0648L48.8316 91.9431L48.9073 91.4107L50.9964 91L51.6019 91.1673L51.4959 97.054L51.6019 101.876L52.6465 102.028L52.5405 102.53L50.4363 102.712L50.1486 101.815ZM47.9233 102.028L50.1486 101.176L50.1789 95.8067L48.4985 95.2743L47.5448 95.5481L46.3791 96.7954L46.1672 98.5447L46.6214 101.1L47.9233 102.028Z" fill="white"/>
<path d="M26.0263 31.381C29.8196 31.381 32.8947 28.652 32.8947 25.2857C32.8947 21.9194 29.8196 19.1905 26.0263 19.1905C22.233 19.1905 19.1579 21.9194 19.1579 25.2857C19.1579 28.652 22.233 31.381 26.0263 31.381Z" fill="black"/>
<path d="M58.0789 31.381C61.8723 31.381 64.9474 28.652 64.9474 25.2857C64.9474 21.9194 61.8723 19.1905 58.0789 19.1905C54.2856 19.1905 51.2105 21.9194 51.2105 25.2857C51.2105 28.652 54.2856 31.381 58.0789 31.381Z" fill="black"/>
<path d="M59.0606 61.8564C58.7696 61.8564 58.4767 61.7092 58.2335 61.4048C53.4634 55.4357 47.4457 52.1483 41.2895 52.1483C35.1326 52.1483 29.1156 55.4357 24.3455 61.4048C23.7871 62.1057 22.9627 61.9775 22.5056 61.1214C22.0486 60.2652 22.1317 59.0035 22.6907 58.3036C27.9263 51.7507 34.5317 48.1429 41.2895 48.1429C48.0472 48.1429 54.652 51.7517 59.8883 58.3026C60.4473 59.0025 60.5303 60.2642 60.0733 61.1204C59.8151 61.605 59.4391 61.8564 59.0606 61.8564Z" fill="black"/>
<path d="M40.1153 190.938C60.6616 191.59 77.8095 174.67 78.4144 153.152C79.0174 131.641 62.854 113.67 42.3078 113.018C21.7715 112.368 4.61943 129.286 4.01654 150.793C3.40964 172.315 19.579 190.286 40.1153 190.938Z" fill="#008000"/>
<path d="M28.4767 212.039L29.6423 212.344L29.5666 212.876L27.7198 212.8L25.6458 212.876L25.6761 212.344L26.8871 212.039L27.0385 207.628L24.4347 207.552L21.6644 207.628L21.7703 212.054L22.9814 212.344L22.83 212.906L21.0588 212.8L19 212.906L19.0908 212.344L20.2868 212.054L20.3776 207.233L20.2262 202.913L19.0606 202.608L19.1362 202L20.9831 202.152L23.0571 202L23.0268 202.608L21.8158 202.913L21.6644 206.791L24.4347 206.837L27.0385 206.791L26.8871 202.913L25.7215 202.608L25.7972 202L27.6441 202.152L29.718 202L29.6878 202.608L28.4767 202.913L28.3253 207.233L28.4767 212.039ZM32.45 211.948L33.5853 212.237L35.1143 211.355L35.0538 209.301H33.7367L32.5711 209.773L32.0412 210.716L32.45 211.948ZM36.3557 210.031L36.4616 212.176L37.5062 212.328L37.4002 212.83L35.296 213.013L35.0992 212.115H35.0235L33.5248 213.013H31.9504L30.8907 212.237L30.5728 210.746L31.2389 209.56L33.0555 208.769L35.0538 208.693L34.9932 206.791L34.7056 205.848L33.4794 205.499L32.0109 205.848L31.9655 207.461L31.3751 207.582L30.9815 205.499L32.7224 204.981L34.6753 204.89L35.8561 205.468L36.3405 206.776L36.3557 210.031ZM40.4747 205.879H40.5807L42.2005 204.89L43.8809 205.073L44.986 205.864L45.864 207.674L45.8792 210.26L45.3039 211.461L43.563 212.876L41.8826 213.104L40.4444 212.724L40.4899 214.078L40.611 215.842L41.7161 216.146L41.6404 216.679L39.7935 216.603L37.9466 216.679L37.9769 216.146L38.976 215.842L39.0517 214.245L39.1123 210.914L39.0214 207.522L38.9457 205.894L37.8709 205.94L37.7952 205.407L39.8843 204.997L40.4596 205.164L40.4747 205.879ZM40.4596 211.887L42.0945 212.42L43.0483 212.146L44.2139 210.898L44.4259 209.149L43.9717 206.594L42.6244 205.788L40.505 206.518L40.5353 207.278L40.4596 211.887ZM49.3597 205.879H49.4657L51.0855 204.89L52.7659 205.073L53.871 205.864L54.749 207.674L54.7642 210.26L54.1889 211.461L52.448 212.876L50.7676 213.104L49.3295 212.724L49.3749 214.078L49.496 215.842L50.6011 216.146L50.5254 216.679L48.6785 216.603L46.8316 216.679L46.8619 216.146L47.861 215.842L47.9367 214.245L47.9973 210.914L47.9064 207.522L47.8308 205.894L46.7559 205.94L46.6802 205.407L48.7693 204.997L49.3446 205.164L49.3597 205.879ZM49.3446 211.887L50.9796 212.42L51.9333 212.146L53.0989 210.898L53.3109 209.149L52.8567 206.594L51.5094 205.788L49.39 206.518L49.4203 207.278L49.3446 211.887ZM56.8299 216.907L56.3606 216.222L55.9064 214.975L56.4817 214.762L57.3294 216.025L58.1015 215.279L59.1612 212.845L56.8147 206.807L56.2849 205.879L55.2101 205.651L55.2858 205.118L57.1326 205.194L58.9341 205.118L58.9038 205.651L58.0258 205.909L58.2529 206.852L59.0704 208.951L59.903 211.4H59.9484L60.7053 209.012L61.4774 206.837L61.6288 205.864L60.781 205.651L60.8567 205.118L62.4765 205.194L63.7632 205.118L63.7329 205.651L62.8096 205.924L62.2797 207.065L60.0241 213.119L58.7222 215.629L57.5868 216.755L56.8299 216.907Z" fill="white"/>
<path d="M30.0072 148.498C32.4624 148.498 34.4527 146.508 34.4527 144.053C34.4527 141.597 32.4624 139.607 30.0072 139.607C27.552 139.607 25.5617 141.597 25.5617 144.053C25.5617 146.508 27.552 148.498 30.0072 148.498Z" fill="black"/>
<path d="M54.9021 148.498C57.3572 148.498 59.3476 146.508 59.3476 144.053C59.3476 141.597 57.3572 139.607 54.9021 139.607C52.4469 139.607 50.4565 141.597 50.4565 144.053C50.4565 146.508 52.4469 148.498 54.9021 148.498Z" fill="black"/>
<path d="M42.4546 174.1C35.3827 174.1 28.8185 170.571 24.894 164.66C24.3507 163.842 24.5739 162.738 25.3919 162.196C26.2098 161.651 27.3141 161.876 27.8565 162.694C31.1204 167.609 36.5777 170.544 42.4546 170.544C48.3316 170.544 53.7889 167.609 57.0528 162.694C57.5951 161.875 58.6976 161.651 59.5174 162.196C60.3353 162.738 60.5585 163.843 60.0153 164.66C56.0908 170.571 49.5256 174.1 42.4546 174.1Z" fill="black"/>
<path d="M42.1153 312.938C62.6616 313.59 79.8095 296.67 80.4144 275.152C81.0174 253.641 64.854 235.67 44.3078 235.018C23.7715 234.368 6.61943 251.286 6.01654 272.793C5.40964 294.315 21.579 312.286 42.1153 312.938Z" fill="#D62D2D"/>
<path d="M24.3599 323.46L24.6475 322.122L25.3893 322L27.5087 327.628L29.4615 332.313L30.7332 332.617L30.6575 333.226L28.8106 333.074L26.5095 333.226L26.5398 332.617L27.7812 332.313L26.7215 329.423L24.8897 329.362L23.1488 329.423L22.1648 332.313L23.3153 332.617L23.2396 333.226L21.3927 333.074L20 333.226L20.0303 332.617L21.2111 332.313L22.9974 327.643L24.3599 323.46ZM24.7989 323.993L23.4213 328.586L24.8897 328.647L26.4187 328.586L25.4498 326.153L24.8292 323.993H24.7989ZM38.372 332.328L39.4468 332.617L39.3711 333.15L37.5848 333.074L35.7379 333.15L35.7682 332.617L36.7673 332.313L36.8733 330.716L36.8127 327.4L36.404 326.396L35.1172 326.168L33.4671 327.02L33.4368 327.552L33.346 329.073L33.3763 330.549L33.452 332.313L34.5571 332.617L34.4814 333.15L32.6951 333.074L30.8482 333.15L30.8784 332.617L31.8776 332.313L31.9835 330.716L31.8473 326.213L30.7725 326.259L30.6968 325.727L32.7859 325.316L33.5428 325.483L33.4974 326.259L35.1172 325.27L36.6613 325.164L38.0541 326.122L38.2811 327.339L38.2509 330.549L38.372 332.328ZM46.9333 324.342L47.4178 325.362L46.782 325.757L45.5255 325.924L46.5852 327.233L46.57 328.708L45.7223 329.971L43.8754 330.579L42.2707 330.351L41.9982 330.746L41.9377 331.172L42.3615 331.446L44.9653 331.857L45.9796 332.085L46.9939 332.815L47.115 334.625L46.4186 335.675L44.7231 336.45L42.3313 336.527L41.2867 336.207L40.4238 335.447L40.1059 334.351L40.56 333.028L41.5895 332.541L41.0445 332.024V330.974L41.7257 330.168L40.4389 329.164L40.2876 327.233L41.5441 325.772L43.4666 325.316L44.9956 325.62L46.9333 324.342ZM43.0428 329.925L44.2841 329.758L45.0865 328.891L45.2076 327.4L44.5415 326.259L43.4364 325.924L41.9831 326.533L41.5592 327.871L42.0436 329.377L43.0428 329.925ZM43.8602 332.982L42.1042 332.739L41.4229 333.484L41.3321 334.61L42.0133 335.599L43.724 335.857L45.5255 335.173L45.9645 333.697L43.8602 332.982ZM50.513 326.715H50.5736L51.5122 325.635L52.5416 325.179L53.677 325.468L53.4196 327.735L52.8898 327.628L52.5113 326.061L51.5273 326.381L50.4525 327.643L50.3768 329.073L50.4222 330.549L50.4827 332.313L51.9966 332.617L51.9209 333.15L49.7258 333.074L47.8789 333.15L47.9092 332.617L48.9083 332.313L48.984 330.716L48.9538 327.795L48.8781 326.213L47.8032 326.259L47.7275 325.727L49.8167 325.316L50.5736 325.483L50.513 326.715ZM55.7004 337.181L55.2311 336.496L54.777 335.249L55.3522 335.036L56.2 336.298L56.972 335.553L58.0317 333.119L55.6853 327.08L55.1554 326.153L54.0806 325.924L54.1563 325.392L56.0032 325.468L57.8047 325.392L57.7744 325.924L56.8963 326.183L57.1234 327.126L57.9409 329.225L58.7735 331.674H58.8189L59.5759 329.286L60.3479 327.111L60.4993 326.137L59.6515 325.924L59.7272 325.392L61.347 325.468L62.6338 325.392L62.6035 325.924L61.6801 326.198L61.1503 327.339L58.8946 333.393L57.5927 335.903L56.4573 337.028L55.7004 337.181Z" fill="white"/>
<path d="M27.756 291.255C29.2853 289.931 31.3772 288.914 33.7473 288.23C36.1317 287.542 38.803 287.187 41.5 287.187C44.197 287.187 46.8682 287.542 49.2528 288.23C51.6228 288.914 53.7148 289.931 55.2438 291.255" stroke="black" stroke-width="2.66667" stroke-linecap="round"/>
<path d="M59.625 260L48.75 267.25" stroke="black" stroke-width="2.66667" stroke-linecap="round"/>
<path d="M23.375 260L34.25 267.25" stroke="black" stroke-width="2.66667" stroke-linecap="round"/>
<path d="M27 270.875C29.002 270.875 30.625 269.252 30.625 267.25C30.625 265.248 29.002 263.625 27 263.625C24.998 263.625 23.375 265.248 23.375 267.25C23.375 269.252 24.998 270.875 27 270.875Z" fill="black"/>
<path d="M56 270.875C58.002 270.875 59.625 269.252 59.625 267.25C59.625 265.248 58.002 263.625 56 263.625C53.998 263.625 52.375 265.248 52.375 267.25C52.375 269.252 53.998 270.875 56 270.875Z" fill="black"/>
<path d="M40.1153 434.938C60.6616 435.59 77.8095 418.67 78.4144 397.152C79.0174 375.641 62.8539 357.67 42.3078 357.018C21.7715 356.368 4.61943 373.286 4.01654 394.793C3.40965 416.315 19.579 434.286 40.1153 434.938Z" fill="#EDED2D"/>
<path d="M12.8292 455.541L13.4196 454.72L13.3893 453.366L12.7081 452.636L8.86289 450.491L8.16652 448.848L8.30277 447.419L9.16566 446.247L11.2699 445.548L13.5861 445.73L14.2976 445.669L14.1765 446.445L14.1916 448.438L13.6315 448.559L13.2379 446.552L11.4516 446.308L9.92258 446.886L9.5744 447.89L9.90745 449.183L13.7223 451.282L14.8426 452.453L14.9031 454.857L13.7375 456.317L11.5121 456.804L8.71151 456.469L8 456.363L8.12111 455.769L8.25735 453.777L8.81748 453.655L9.05969 455.663L10.9066 455.982L12.8292 455.541ZM18.3081 451.252V454.568L18.7168 455.572L19.9885 455.739L21.6386 454.75V453.138L21.6234 451.236L21.5477 449.655L20.4729 449.7L20.3972 449.168L22.4863 448.757L23.2432 448.924L23.1373 450.993L23.1221 452.21L23.1524 453.138V455.876L24.2121 456.18L24.1364 456.712H22.0624L21.7142 455.435L20.0036 456.697L18.4595 456.804L17.0667 455.845L16.8397 454.629L16.8548 451.373L16.7034 449.639L15.6286 449.685L15.5529 449.153L17.642 448.742L18.3989 448.909L18.3081 451.252ZM27.5251 450.141H27.5856L28.5242 449.061L29.5536 448.605L30.689 448.894L30.4317 451.16L29.9018 451.054L29.5234 449.487L28.5394 449.807L27.4645 451.069L27.3888 452.499L27.4343 453.974L27.4948 455.739L29.0087 456.043L28.933 456.576L26.7379 456.5L24.891 456.576L24.9213 456.043L25.9204 455.739L25.9961 454.142L25.9658 451.221L25.8901 449.639L24.8153 449.685L24.7396 449.153L26.8287 448.742L27.5856 448.909L27.5251 450.141ZM33.7873 449.579H33.8933L35.5131 448.59L37.1934 448.772L38.2986 449.563L39.1766 451.373L39.1917 453.959L38.6165 455.161L36.8755 456.576L35.1952 456.804L33.757 456.423L33.8024 457.777L33.9235 459.542L35.0286 459.846L34.953 460.378L33.1061 460.302L31.2592 460.378L31.2894 459.846L32.2886 459.542L32.3643 457.945L32.4248 454.613L32.334 451.221L32.2583 449.594L31.1835 449.639L31.1078 449.107L33.1969 448.696L33.7722 448.864L33.7873 449.579ZM33.7722 455.587L35.4071 456.119L36.3608 455.845L37.5265 454.598L37.7384 452.849L37.2843 450.293L35.937 449.487L33.8176 450.217L33.8479 450.978L33.7722 455.587ZM42.9296 450.141H42.9902L43.9287 449.061L44.9582 448.605L46.0935 448.894L45.8362 451.16L45.3063 451.054L44.9279 449.487L43.9439 449.807L42.869 451.069L42.7934 452.499L42.8388 453.974L42.8993 455.739L44.4132 456.043L44.3375 456.576L42.1424 456.5L40.2955 456.576L40.3258 456.043L41.3249 455.739L41.4006 454.142L41.3703 451.221L41.2946 449.639L40.2198 449.685L40.1441 449.153L42.2332 448.742L42.9902 448.909L42.9296 450.141ZM47.6932 445.73L48.3895 445.395L49.1162 445.639L49.4492 446.46L49.0254 447.13L48.3138 447.419L47.6478 447.008L47.3298 446.323L47.6932 445.73ZM49.4038 450.978L49.313 452.499L49.3584 453.974L49.419 455.739L50.5241 456.043L50.4484 456.576L48.662 456.5L46.8151 456.576L46.8454 456.043L47.8446 455.739L47.9202 454.142L47.89 451.221L47.8143 449.639L46.7394 449.685L46.6638 449.153L48.7529 448.742L49.5098 448.909L49.4038 450.978ZM52.4018 455.906L53.6583 456.104L55.0662 455.906L55.3992 454.872L54.9905 454.081L52.1747 452.362L51.5692 451.404L51.5389 449.791L52.6137 448.879L54.2033 448.59L56.4286 449.046L56.1107 451.282L55.4749 451.069L55.1873 449.487L54.1427 449.29L53.0073 449.548L52.7197 450.385L53.083 451.282L55.9896 452.955L56.7011 453.853L56.7617 455.283L55.7323 456.5L53.9156 456.804L52.6592 456.743L51.2513 456.195L51.6297 454.005L52.2807 454.218L52.4018 455.906ZM59.4206 452.408L59.4055 452.545L59.8142 454.689L61.0102 455.876L62.4029 456.028L63.8262 455.267L64.0987 455.663L62.9027 456.621L61.4795 456.804L59.9959 456.454L58.7091 455.374L57.9371 453.092L58.1944 451.054L58.9816 449.624L60.5711 448.742L61.9033 448.575L62.9633 448.909L63.7808 449.655L64.25 451.008L64.2652 452.271L64.0532 452.438L62.0396 452.575L59.4206 452.408ZM60.1775 449.944L59.5871 451.1L59.4963 451.784L61.7974 451.815L62.8422 451.586L62.7513 450.172L62.2969 449.396L61.3281 449.259L60.1775 449.944ZM70.9122 455.815H70.8365L69.1562 456.804L67.4758 456.621L66.3707 455.83L65.4927 454.02L65.4775 451.434L66.0528 450.233L67.7937 448.818L69.4741 448.59L70.9425 448.97L70.8517 446.065L69.5952 445.943L69.6709 445.411L71.76 445L72.3655 445.167L72.2596 451.054L72.3655 455.876L73.4101 456.028L73.3041 456.53L71.1999 456.712L70.9122 455.815ZM68.6869 456.028L70.9122 455.176L70.9425 449.807L69.2621 449.274L68.3084 449.548L67.1427 450.795L66.9308 452.545L67.385 455.1L68.6869 456.028Z" fill="white"/>
<path d="M29.0072 392.498C31.4624 392.498 33.4527 390.508 33.4527 388.053C33.4527 385.597 31.4624 383.607 29.0072 383.607C26.552 383.607 24.5617 385.597 24.5617 388.053C24.5617 390.508 26.552 392.498 29.0072 392.498Z" fill="black"/>
<path d="M53.9021 392.498C56.3572 392.498 58.3476 390.508 58.3476 388.053C58.3476 385.597 56.3572 383.607 53.9021 383.607C51.4469 383.607 49.4565 385.597 49.4565 388.053C49.4565 390.508 51.4469 392.498 53.9021 392.498Z" fill="black"/>
<path d="M41.4546 422.239C35.9449 422.239 31.462 417.756 31.462 412.246C31.462 406.736 35.9449 402.252 41.4546 402.252C46.9644 402.252 51.4472 406.735 51.4472 412.245C51.4472 417.755 46.9644 422.239 41.4546 422.239ZM41.4546 405.809C37.9053 405.809 35.0184 408.696 35.0184 412.245C35.0184 415.794 37.9053 418.682 41.4546 418.682C45.0039 418.682 47.8908 415.795 47.8908 412.246C47.8908 408.697 45.0039 405.809 41.4546 405.809Z" fill="black"/>
<path d="M42.1153 554.938C62.6616 555.59 79.8095 538.67 80.4144 517.152C81.0174 495.641 64.854 477.67 44.3078 477.018C23.7715 476.368 6.61943 493.286 6.01654 514.793C5.40964 536.315 21.579 554.286 42.1153 554.938Z" fill="#800080"/>
<path d="M12.074 577.5L10 577.576L10.0303 577.043L11.2414 576.739L11.3927 572.449L11.2414 567.612L10.0757 567.308L10.1514 566.776L11.9983 566.852L14.7232 566.715L16.5398 567.126L18.8863 568.434L19.7946 570.305L19.9611 572.176L19.1588 575.583L16.6155 577.271L14.7232 577.621L12.074 577.5ZM14.7383 576.815L16.5398 576.298L17.766 575.111L18.2353 572.176L17.9477 569.559L16.5095 568.023L14.7535 567.536H12.8309L12.6946 569.422L12.8309 576.815H14.7383ZM21.9633 566.73L22.6597 566.395L23.3863 566.639L23.7194 567.46L23.2955 568.13L22.584 568.419L21.9179 568.008L21.6 567.323L21.9633 566.73ZM23.6739 571.978L23.5831 573.499L23.6285 574.974L23.6891 576.739L24.7942 577.043L24.7185 577.576L22.9322 577.5L21.0853 577.576L21.1155 577.043L22.1147 576.739L22.1904 575.142L22.1601 572.221L22.0844 570.639L21.0096 570.685L20.9339 570.153L23.023 569.742L23.7799 569.909L23.6739 571.978ZM26.672 576.906L27.9285 577.104L29.3364 576.906L29.6694 575.872L29.2607 575.081L26.4449 573.362L25.8394 572.404L25.8091 570.791L26.8839 569.879L28.4735 569.59L30.6988 570.046L30.3809 572.282L29.7451 572.069L29.4575 570.487L28.4129 570.29L27.2775 570.548L26.9899 571.385L27.3532 572.282L30.2598 573.955L30.9713 574.853L31.0319 576.283L30.0024 577.5L28.1858 577.804L26.9293 577.743L25.5215 577.195L25.8999 575.005L26.5509 575.218L26.672 576.906ZM38.9741 568.768L39.4585 569.788L38.8227 570.183L37.5662 570.35L38.6259 571.658L38.6107 573.134L37.763 574.396L35.9161 575.005L34.3114 574.777L34.0389 575.172L33.9784 575.598L34.4023 575.872L37.0061 576.283L38.0203 576.511L39.0346 577.241L39.1557 579.051L38.4594 580.101L36.7639 580.876L34.372 580.952L33.3274 580.633L32.4645 579.872L32.1466 578.777L32.6008 577.454L33.6302 576.967L33.0852 576.45V575.4L33.7664 574.594L32.4797 573.59L32.3283 571.658L33.5848 570.198L35.5074 569.742L37.0363 570.046L38.9741 568.768ZM35.0835 574.351L36.3248 574.184L37.1272 573.317L37.2483 571.826L36.5822 570.685L35.4771 570.35L34.0238 570.959L33.5999 572.297L34.0843 573.803L35.0835 574.351ZM35.901 577.408L34.1449 577.165L33.4637 577.91L33.3728 579.036L34.0541 580.025L35.7647 580.283L37.5662 579.599L38.0052 578.123L35.901 577.408ZM42.2661 572.252V575.568L42.6749 576.572L43.9465 576.739L45.5966 575.75V574.138L45.5814 572.236L45.5057 570.655L44.4309 570.7L44.3552 570.168L46.4443 569.757L47.2013 569.924L47.0953 571.993L47.0801 573.21L47.1104 574.138V576.876L48.1701 577.18L48.0944 577.712H46.0205L45.6723 576.435L43.9616 577.697L42.4175 577.804L41.0248 576.845L40.7977 575.629L40.8128 572.373L40.6614 570.639L39.5866 570.685L39.5109 570.153L41.6 569.742L42.3569 569.909L42.2661 572.252ZM50.045 576.906L51.3014 577.104L52.7093 576.906L53.0424 575.872L52.6336 575.081L49.8179 573.362L49.2123 572.404L49.1821 570.791L50.2569 569.879L51.8464 569.59L54.0718 570.046L53.7539 572.282L53.1181 572.069L52.8304 570.487L51.7859 570.29L50.6505 570.548L50.3629 571.385L50.7262 572.282L53.6328 573.955L54.3443 574.853L54.4048 576.283L53.3754 577.5L51.5588 577.804L50.3023 577.743L48.8944 577.195L49.2729 575.005L49.9238 575.218L50.045 576.906ZM58.9106 577.652L57.8812 577.804L56.8064 577.439L56.3219 576.222L56.3976 573.393L56.3219 570.837L55.2774 570.685L55.1865 570.153L56.3825 569.833L56.9275 568.297H57.6995L57.6541 570.001L59.4859 570.061L59.395 570.731L57.8055 570.837L57.7449 571.537L57.8055 576.146L58.1083 577.058L59.5313 576.678L59.7584 577.134L58.9106 577.652ZM61.9571 573.408L61.942 573.545L62.3507 575.689L63.5466 576.876L64.9395 577.028L66.3625 576.267L66.635 576.663L65.4391 577.621L64.0159 577.804L62.5324 577.454L61.2456 576.374L60.4735 574.092L60.7309 572.054L61.5181 570.624L63.1076 569.742L64.4398 569.575L65.4996 569.909L66.3171 570.655L66.7864 572.008L66.8015 573.271L66.5896 573.438L64.576 573.575L61.9571 573.408ZM62.714 570.944L62.1236 572.1L62.0328 572.784L64.3338 572.815L65.3785 572.586L65.2877 571.172L64.8334 570.396L63.8645 570.259L62.714 570.944ZM73.4492 576.815H73.3735L71.6931 577.804L70.0128 577.621L68.9077 576.83L68.0296 575.02L68.0145 572.434L68.5898 571.233L70.3307 569.818L72.011 569.59L73.4795 569.97L73.3887 567.065L72.1322 566.943L72.2079 566.411L74.297 566L74.9025 566.167L74.7965 572.054L74.9025 576.876L75.9471 577.028L75.8411 577.53L73.7368 577.712L73.4492 576.815ZM71.2238 577.028L73.4492 576.176L73.4795 570.807L71.7991 570.274L70.8454 570.548L69.6797 571.795L69.4678 573.545L69.9219 576.1L71.2238 577.028Z" fill="white"/>
<path d="M29.1191 511.553C31.8471 511.553 34.0586 509.342 34.0586 506.614C34.0586 503.886 31.8471 501.675 29.1191 501.675C26.3911 501.675 24.1797 503.886 24.1797 506.614C24.1797 509.342 26.3911 511.553 29.1191 511.553Z" fill="black"/>
<path d="M56.7801 511.553C59.508 511.553 61.7195 509.342 61.7195 506.614C61.7195 503.886 59.508 501.675 56.7801 501.675C54.0521 501.675 51.8406 503.886 51.8406 506.614C51.8406 509.342 54.0521 511.553 56.7801 511.553Z" fill="black"/>
<path d="M59.167 533.574C57.8566 535.114 56.6344 535.893 55.5351 535.893C55.5191 535.893 55.5057 535.893 55.491 535.893C54.4278 535.872 53.2937 535.106 52.1102 533.598C50.4686 531.567 48.7628 530.539 46.9622 530.56C45.2164 530.574 43.5387 531.589 41.9759 533.571L41.9732 533.572C40.6615 535.112 39.4406 535.892 38.3413 535.892C38.3266 535.892 38.3119 535.892 38.2972 535.892C37.2339 535.871 36.0999 535.104 34.9164 533.597C33.2868 531.58 31.5663 530.559 29.8031 530.559C29.7911 530.559 29.7791 530.559 29.7671 530.559C28.0079 530.573 26.3182 531.601 24.7446 533.614C24.2972 534.185 24.4094 535.004 24.9958 535.441C25.5822 535.878 26.4197 535.767 26.8671 535.196C27.9144 533.858 28.8962 533.173 29.7884 533.167C29.7924 533.167 29.7978 533.167 29.8018 533.167C30.7061 533.167 31.7213 533.854 32.8059 535.198C34.4983 537.353 36.327 538.463 38.2438 538.5C38.2758 538.5 38.3092 538.5 38.3413 538.5C40.2714 538.5 42.1842 537.403 44.0262 535.237C44.0329 535.231 44.0329 535.221 44.0396 535.214C44.0463 535.206 44.0556 535.204 44.061 535.196C45.1082 533.858 46.0913 533.173 46.9809 533.167C46.9863 533.167 46.9916 533.167 46.9956 533.167C47.8999 533.167 48.9151 533.854 49.9997 535.198C51.6921 537.353 53.5208 538.463 55.4362 538.5C55.4683 538.5 55.5017 538.5 55.5338 538.5C57.4639 538.5 59.3781 537.403 61.2214 535.237C61.6929 534.685 61.6141 533.862 61.0464 533.401C60.4814 532.941 59.6399 533.021 59.167 533.574Z" fill="black"/>
<path d="M40.1153 673.937C60.6616 674.59 77.8095 657.667 78.4144 636.15C79.0174 614.639 62.8541 596.671 42.3078 596.018C21.7715 595.365 4.61943 612.288 4.01654 633.792C3.40964 655.316 19.579 673.284 40.1153 673.937Z" fill="#D68A2D"/>
<path d="M23.8292 696.54L24.4196 695.716L24.3893 694.366L23.7081 693.631L19.8629 691.489L19.1665 689.847L19.3028 688.415L20.1657 687.242L22.2699 686.545L24.5861 686.729L25.2976 686.666L25.1765 687.445L25.1916 689.435L24.6315 689.556L24.2379 687.546L22.4516 687.306L20.9226 687.882L20.5744 688.89L20.9074 690.183L24.7223 692.281L25.8426 693.453L25.9031 695.856L24.7375 697.313L22.5121 697.801L19.7115 697.465L19 697.358L19.1211 696.768L19.2574 694.772L19.8175 694.651L20.0597 696.66L21.9066 696.977L23.8292 696.54ZM32.2601 690.456L30.3526 690.303L28.9902 691.761L28.5966 693.346L28.7934 694.955L29.7622 696.724L31.6243 697.028L33.0473 696.267L33.3198 696.66L32.1238 697.617L30.7008 697.801L28.536 697.18L27.1887 694.975L27.1736 692.433L28.203 690.62L29.7925 689.784L31.1701 689.587L33.4863 689.891L33.0322 692.281L32.5326 692.357L32.2601 690.456ZM36.1564 696.648L37.2917 696.933L38.8207 696.052L38.7602 693.998H37.4431L36.2775 694.467L35.7476 695.412L36.1564 696.648ZM40.0621 694.727L40.168 696.876L41.2126 697.028L41.1066 697.529L39.0024 697.712L38.8056 696.813H38.7299L37.2312 697.712H35.6568L34.5971 696.933L34.2792 695.444L34.9453 694.258L36.7619 693.466L38.7602 693.39L38.6996 691.489L38.412 690.544L37.1858 690.196L35.7173 690.544L35.6719 692.16L35.0815 692.281L34.6879 690.196L36.4288 689.676L38.3817 689.587L39.5625 690.164L40.0469 691.476L40.0621 694.727ZM44.4385 691.14H44.4991L45.4377 690.056L46.4671 689.6L47.6025 689.891L47.3451 692.16L46.8153 692.053L46.4368 690.487L45.4528 690.804L44.378 692.065L44.3023 693.498L44.3477 694.975L44.4083 696.736L45.9221 697.041L45.8464 697.573L43.6513 697.497L41.8044 697.573L41.8347 697.041L42.8339 696.736L42.9096 695.139L42.8793 692.218L42.8036 690.639L41.7288 690.684L41.6531 690.151L43.7422 689.739L44.4991 689.904L44.4385 691.14ZM49.9305 693.403L49.9153 693.542L50.3241 695.684L51.52 696.876L52.9127 697.028L54.3358 696.267L54.6082 696.66L53.4123 697.617L51.9893 697.801L50.5057 697.453L49.219 696.369L48.4469 694.087L48.7042 692.053L49.4914 690.62L51.081 689.739L52.4132 689.575L53.4729 689.904L54.2903 690.652L54.7596 692.008L54.7748 693.27L54.5628 693.434L52.5494 693.574L49.9305 693.403ZM50.6874 690.944L50.097 692.097L50.0062 692.782L52.3072 692.813L53.3518 692.585L53.2609 691.172L52.8068 690.392L51.8379 690.259L50.6874 690.944ZM61.4223 696.813H61.3466L59.6663 697.801L57.9859 697.617L56.8808 696.825L56.0027 695.019L55.9876 692.433L56.5629 691.229L58.3038 689.815L59.9842 689.587L61.4526 689.968L61.3618 687.065L60.1053 686.938L60.181 686.406L62.2701 686L62.8756 686.165L62.7696 692.053L62.8756 696.876L63.92 697.028L63.8141 697.529L61.7099 697.712L61.4223 696.813ZM59.197 697.028L61.4223 696.172L61.4526 690.804L59.7722 690.272L58.8185 690.544L57.6528 691.793L57.4409 693.542L57.8951 696.096L59.197 697.028Z" fill="white"/>
<path d="M57.7395 652.557L53.7395 649.891C53.2917 649.592 52.7081 649.592 52.2603 649.891L49 652.064L45.7395 649.891C45.2917 649.592 44.7081 649.592 44.2603 649.891L41 652.064L37.7395 649.891C37.2917 649.592 36.7081 649.592 36.2603 649.891L33 652.064L29.7395 649.891C29.2917 649.592 28.7081 649.592 28.2603 649.891L24.2603 652.557C23.6477 652.966 23.482 653.794 23.8905 654.406C24.2989 655.019 25.1267 655.185 25.7395 654.776L29 652.603L32.2605 654.776C32.7083 655.075 33.2919 655.075 33.7397 654.776L37.0002 652.603L40.2606 654.776C40.7084 655.075 41.292 655.075 41.7399 654.776L45.0003 652.603L48.2608 654.776C48.7086 655.075 49.292 655.075 49.74 654.776L53.0005 652.603L56.261 654.776C56.8736 655.185 57.7014 655.019 58.11 654.406C58.5186 653.794 58.3524 652.966 57.7395 652.557Z" fill="black"/>
<path d="M33 632.333C33 627.916 29.4177 624.333 25 624.333C20.5823 624.333 17 627.916 17 632.333C17 636.751 20.5823 640.333 25 640.333C29.4177 640.333 33 636.751 33 632.333ZM19.6667 632.333C19.6667 629.388 22.0552 627 25 627C27.945 627 30.3333 629.388 30.3333 632.333C30.3333 635.278 27.9448 637.667 25 637.667C22.055 637.667 19.6667 635.278 19.6667 632.333Z" fill="black"/>
<path d="M18.8656 622.733C19.4545 623.175 20.2903 623.056 20.7323 622.467C21.7339 621.133 23.2992 620.334 24.9994 620.334C26.7017 620.334 28.2683 621.134 29.27 622.47C29.7119 623.059 30.5475 623.178 31.1367 622.736C31.7259 622.295 31.8451 621.459 31.4034 620.87C29.9031 618.869 27.5498 617.667 24.9994 617.667C22.4516 617.667 20.0998 618.868 18.5997 620.866C18.1576 621.455 18.2767 622.291 18.8656 622.733Z" fill="black"/>
<path d="M50.8627 622.733C51.4516 623.175 52.2873 623.056 52.7294 622.467C53.7309 621.133 55.2963 620.334 56.9964 620.334C58.6988 620.334 60.2653 621.134 61.267 622.47C61.7089 623.059 62.5445 623.178 63.1337 622.736C63.7228 622.294 63.8422 621.459 63.4005 620.87C61.9002 618.869 59.5469 617.667 56.9964 617.667C54.4486 617.667 52.0969 618.868 50.5967 620.866C50.1547 621.455 50.2738 622.291 50.8627 622.733Z" fill="black"/>
<path d="M57 624.333C52.5823 624.333 49 627.916 49 632.333C49 636.751 52.5823 640.333 57 640.333C61.4177 640.333 65 636.751 65 632.333C65 627.916 61.4177 624.333 57 624.333ZM57 637.667C54.055 637.667 51.6667 635.278 51.6667 632.333C51.6667 629.389 54.055 627 57 627C59.945 627 62.3333 629.388 62.3333 632.333C62.3333 635.278 59.945 637.667 57 637.667Z" fill="black"/>
<path d="M57 633.667C57.7363 633.667 58.3333 633.07 58.3333 632.333C58.3333 631.597 57.7363 631 57 631C56.2636 631 55.6667 631.597 55.6667 632.333C55.6667 633.07 56.2636 633.667 57 633.667Z" fill="black"/>
<path d="M25 633.667C25.7364 633.667 26.3333 633.07 26.3333 632.333C26.3333 631.597 25.7364 631 25 631C24.2636 631 23.6667 631.597 23.6667 632.333C23.6667 633.07 24.2636 633.667 25 633.667Z" fill="black"/>
<path d="M40.1153 791.937C60.6616 792.59 77.8095 775.667 78.4144 754.15C79.0174 732.639 62.8541 714.671 42.3078 714.018C21.7715 713.365 4.61943 730.288 4.01654 751.792C3.40964 773.316 19.579 791.284 40.1153 791.937Z" fill="#8F8F8F"/>
<path d="M24.8106 803.849L26.4758 803.697L26.4455 804.306L25.2799 804.565L25.2042 805.719L25.3253 814.801L24.8711 814.953L24.6138 814.497L20.9654 809.826L18.6341 806.879L18.0286 805.719H17.9983L18.0437 807.012V812.488L18.0588 813.781L19.2094 814.053L19.1337 814.649L17.5441 814.497L16 814.649L16.0303 814.041L17.0597 813.8L17.1808 812.488L17.2868 804.61L16.0454 804.306L16.1211 803.697L17.968 803.849H18.7249L19.1488 804.794L23.1605 810.162L24.4321 812.228H24.4624L24.4473 810.77L24.4018 805.763L24.3262 804.565L23.221 804.306L23.2967 803.697L24.8106 803.849ZM28.6322 810.403L28.6171 810.542L29.0258 812.684L30.2218 813.876L31.6145 814.028L33.0375 813.267L33.31 813.66L32.1141 814.617L30.6911 814.801L29.2075 814.453L27.9207 813.369L27.1487 811.087L27.406 809.053L28.1932 807.62L29.7827 806.739L31.1149 806.575L32.1746 806.904L32.9921 807.652L33.4614 809.008L33.4765 810.27L33.2646 810.434L31.2512 810.574L28.6322 810.403ZM29.3892 807.944L28.7987 809.097L28.7079 809.782L31.009 809.813L32.0535 809.585L31.9627 808.172L31.5085 807.392L30.5397 807.259L29.3892 807.944ZM36.7936 809.249V812.564L37.2024 813.572L38.474 813.736L40.1241 812.748V811.138L40.1089 809.236L40.0333 807.652L38.9584 807.696L38.8827 807.164L40.9718 806.752L41.7288 806.923L41.6228 808.989L41.6077 810.206L41.6379 811.138V813.876L42.6976 814.18L42.6219 814.712H40.548L40.1998 813.432L38.4891 814.694L36.945 814.801L35.5523 813.844L35.3252 812.627L35.3403 809.37L35.1889 807.639L34.1141 807.684L34.0384 807.151L36.1275 806.739L36.8845 806.904L36.7936 809.249ZM46.9038 814.649L45.8744 814.801L44.7995 814.434L44.3151 813.217L44.3908 810.39L44.3151 807.836L43.2706 807.684L43.1797 807.151L44.3757 806.828L44.9206 805.294H45.6927L45.6473 806.999L47.479 807.056L47.3882 807.728L45.7987 807.836L45.7381 808.533L45.7987 813.141L46.1014 814.053L47.5245 813.673L47.7515 814.129L46.9038 814.649ZM50.904 808.14H50.9646L51.9031 807.056L52.9326 806.6L54.0679 806.891L53.8106 809.16L53.2807 809.053L52.9023 807.487L51.9183 807.804L50.8434 809.065L50.7678 810.498L50.8132 811.975L50.8737 813.736L52.3876 814.041L52.3119 814.573L50.1168 814.497L48.2699 814.573L48.3002 814.041L49.2993 813.736L49.375 812.139L49.3447 809.218L49.269 807.639L48.1942 807.684L48.1185 807.151L50.2076 806.739L50.9646 806.904L50.904 808.14ZM56.5924 813.648L57.7278 813.933L59.2568 813.052L59.1962 810.998H57.8792L56.7135 811.467L56.1837 812.412L56.5924 813.648ZM60.4981 811.727L60.6041 813.876L61.6486 814.028L61.5427 814.529L59.4384 814.712L59.2416 813.813H59.1659L57.6672 814.712H56.0928L55.0331 813.933L54.7152 812.444L55.3813 811.258L57.1979 810.466L59.1962 810.39L59.1357 808.489L58.848 807.544L57.6218 807.196L56.1534 807.544L56.108 809.16L55.5176 809.281L55.124 807.196L56.8649 806.676L58.8178 806.587L59.9986 807.164L60.483 808.476L60.4981 811.727ZM64.6775 805.174L64.5866 810.498L64.6321 811.975L64.7532 813.736L65.8583 814.041L65.7826 814.573L63.9357 814.497L62.089 814.573L62.1193 814.041L63.1182 813.736L63.1939 812.139L63.2545 808.806L63.1636 805.415L63.0879 803.894L62.0134 803.938L61.9377 803.406L64.0265 803L64.7834 803.165L64.6775 805.174Z" fill="white"/>
<path d="M29.5208 742.917C29.5208 745.563 27.3756 747.708 24.7292 747.708C22.0827 747.708 19.9375 745.563 19.9375 742.917C19.9375 740.27 22.0827 738.125 24.7292 738.125C27.3756 738.125 29.5208 740.27 29.5208 742.917Z" fill="black"/>
<path d="M63.0625 742.917C63.0625 745.563 60.9173 747.708 58.2708 747.708C55.6244 747.708 53.4792 745.563 53.4792 742.917C53.4792 740.27 55.6244 738.125 58.2708 738.125C60.9173 738.125 63.0625 740.27 63.0625 742.917Z" fill="black"/>
<path fill-rule="evenodd" clip-rule="evenodd" d="M22.3333 769.271C22.3333 767.948 23.406 766.875 24.7292 766.875H58.2708C59.5941 766.875 60.6667 767.948 60.6667 769.271C60.6667 770.594 59.5941 771.667 58.2708 771.667H24.7292C23.406 771.667 22.3333 770.594 22.3333 769.271Z" fill="black"/>
</g>
<defs>
<clipPath id="clip0_61_400">
<rect width="82" height="874" fill="white"/>
</clipPath>
</defs>
</svg>
