<svg width="1487" height="890" viewBox="0 0 1487 890" fill="none" xmlns="http://www.w3.org/2000/svg">
<rect width="1487" height="890" fill="#427070"/>
<rect x="1092.47" y="424.943" width="11.1359" height="178.175" transform="rotate(2.79064 1092.47 424.943)" fill="#3C2801"/>
<rect x="1008.95" y="419.375" width="11.1359" height="178.175" transform="rotate(2.79064 1008.95 419.375)" fill="#3C2801"/>
<rect x="1130.19" y="419.73" width="11.1359" height="178.175" transform="rotate(-1.59746 1130.19 419.73)" fill="#3C2801"/>
<rect x="1060.39" y="424.115" width="11.1359" height="162.457" transform="rotate(0.0763687 1060.39 424.115)" fill="#3C2801"/>
<rect x="1005.85" y="419.375" width="139.199" height="33.4078" fill="#3C2801"/>
<ellipse cx="1078.23" cy="399.887" rx="66.8156" ry="13.9199" fill="#AA4400"/>
<rect x="1011.42" y="402.671" width="133.631" height="11.1359" fill="#3C2801"/>
<rect x="1061.5" y="185.52" width="105.791" height="189.311" transform="rotate(5.05367 1061.5 185.52)" fill="#3C2801"/>
<ellipse cx="1098.76" cy="373.806" rx="53.1656" ry="9.99998" transform="rotate(6.19465 1098.76 373.806)" fill="#3C2801"/>
<path d="M1101.92 168.961C1122.37 169.738 1139.44 149.566 1140.04 123.912C1140.64 98.2647 1124.55 76.8388 1104.1 76.0616C1083.67 75.2868 1066.6 95.4567 1066 121.099C1065.39 146.758 1081.48 168.184 1101.92 168.961Z" fill="#CA9494"/>
<path d="M1142.99 207.638C1143.49 201.453 1141.9 195.291 1138.63 190.674C1135.36 186.057 1130.7 183.397 1125.8 183.397H1079.3C1071.74 183.397 1065.42 190.695 1064.69 200.257L1052.99 354.029H983.892C976.87 354.029 970.135 357.58 965.174 363.899C960.213 370.218 957.429 378.788 957.44 387.717L957.587 511.757C957.606 525.654 966.469 536.842 977.394 536.842C977.403 536.842 977.417 536.842 977.428 536.842C988.367 536.842 997.22 525.54 997.205 511.632L997.087 412.05C997.085 409.996 997.726 408.025 998.868 406.57C1000.01 405.118 1001.56 404.304 1003.17 404.304H1109.32C1120.26 404.304 1127.97 393.689 1129.13 379.133C1129.2 378.164 1138.77 259.816 1142.99 207.638Z" fill="#CA9494"/>
<rect width="11.1359" height="178.175" transform="matrix(-0.998814 0.0486865 0.0486865 0.998814 398.766 424.943)" fill="#3C2801"/>
<rect width="11.1359" height="178.175" transform="matrix(-0.998814 0.0486865 0.0486865 0.998814 482.285 419.375)" fill="#3C2801"/>
<rect width="11.1359" height="178.175" transform="matrix(-0.999611 -0.0278773 -0.0278773 0.999611 361.047 419.73)" fill="#3C2801"/>
<rect width="11.1359" height="162.457" transform="matrix(-0.999999 0.00133288 0.00133288 0.999999 430.852 424.115)" fill="#3C2801"/>
<rect width="139.199" height="33.4078" transform="matrix(-1 0 0 1 485.392 419.375)" fill="#3C2801"/>
<ellipse cx="66.8156" cy="13.9199" rx="66.8156" ry="13.9199" transform="matrix(-1 0 0 1 479.824 385.967)" fill="#AA4400"/>
<rect width="133.631" height="11.1359" transform="matrix(-1 0 0 1 479.824 402.671)" fill="#3C2801"/>
<rect width="105.791" height="189.311" transform="matrix(-0.996113 0.0880888 0.0880888 0.996113 429.74 185.52)" fill="#3C2801"/>
<ellipse cx="53.1656" cy="9.99998" rx="53.1656" ry="9.99998" transform="matrix(-0.994161 0.107907 0.107907 0.994161 444.258 358.127)" fill="#3C2801"/>
<path d="M389.318 168.961C368.869 169.738 351.803 149.566 351.203 123.912C350.602 98.2647 366.688 76.8388 387.137 76.0616C407.574 75.2868 424.644 95.4567 425.245 121.099C425.849 146.758 409.756 168.184 389.318 168.961Z" fill="#CA9494"/>
<path d="M348.25 207.638C347.752 201.453 349.34 195.291 352.611 190.674C355.882 186.057 360.545 183.397 365.438 183.397H411.94C419.496 183.397 425.82 190.695 426.545 200.257L438.245 354.029H507.348C514.37 354.029 521.105 357.58 526.066 363.899C531.027 370.218 533.811 378.788 533.8 387.717L533.653 511.757C533.634 525.654 524.771 536.842 513.846 536.842C513.837 536.842 513.823 536.842 513.812 536.842C502.873 536.842 494.02 525.54 494.035 511.632L494.153 412.05C494.155 409.996 493.514 408.025 492.372 406.57C491.231 405.118 489.681 404.304 488.067 404.304H381.923C370.983 404.304 363.268 393.689 362.113 379.133C362.038 378.164 352.471 259.816 348.25 207.638Z" fill="#CA9494"/>
<path d="M717.112 605.733V329.653" stroke="#3C2801" stroke-width="4.76"/>
<path d="M571.54 649.906V373.826" stroke="#3C2801" stroke-width="4.76"/>
<path d="M751.923 699.6V423.52" stroke="#3C2801" stroke-width="4.76"/>
<path d="M732.935 561.56V285.48" stroke="#3C2801" stroke-width="4.76"/>
<path d="M919.648 677.514V401.434" stroke="#3C2801" stroke-width="4.76"/>
<path d="M736.1 567.082C895.147 567.082 1024.08 504.043 1024.08 426.281C1024.08 348.519 895.147 285.48 736.1 285.48C577.053 285.48 448.12 348.519 448.12 426.281C448.12 504.043 577.053 567.082 736.1 567.082Z" fill="#3C2801"/>
<g clip-path="url(#clip0_44_3)">
<path d="M677 255L793 255.52L790 267L792.526 277L785.976 294.289L769.418 313.405L755.905 321.212L741.059 325.52L726.595 323.366L712.891 318.251L701.472 311.789L691.765 301.559L682.439 287.559L679 276L676.92 267.635V262L677 255Z" fill="#FF5267" stroke="#FF5267" stroke-width="0.672064"/>
<path d="M687.766 266.7C710.501 278.169 760.799 278.952 783.066 266.7" stroke="#FFCCCC" stroke-width="0.833485" stroke-linecap="round" stroke-linejoin="round"/>
<path d="M793 256C789.321 259.365 788.349 265.269 777.076 268.75C765.803 272.231 750.509 274.192 734.55 274.203C718.592 274.214 703.271 272.273 691.95 268.808C680.628 265.342 677.07 260.917 677 256C676.928 251.082 680.351 246.073 691.575 242.577C702.799 239.08 718.067 237.098 734.027 237.066C749.989 237.034 765.339 238.954 776.71 242.406C788.081 245.857 792.865 250.082 793 255" fill="#E14F61"/>
<path d="M680 289L621 298L452.16 430.52H700.16L718.16 426.52L723.16 421.52L728.16 401.52V333.52V328.52L713.16 325.52L696.16 316.52L683.16 303.52L680 289Z" fill="#3B2801"/>
<path d="M747.16 421.52L764.16 430.52H981.16L970.16 349.52L885 307.52L789 289V296L782.16 307.52L768.16 320.52L757.16 325.52L749.16 328.52H739.16V383.52L738.16 401.52L741.16 408.52L747.16 421.52Z" fill="#3B2801"/>
<path d="M700.16 430.52L718.16 426.52L723.16 421.52L728.16 401.52V333.52V328.52L713.16 325.52L696.16 316.52L683.16 303.52L680 289L621 298L452.16 430.52M700.16 430.52H764.16M700.16 430.52H452.16M764.16 430.52L747.16 421.52L741.16 408.52L738.16 401.52L739.16 383.52V328.52H749.16L757.16 325.52L768.16 320.52L782.16 307.52L789 296V289L885 307.52L970.16 349.52L981.16 430.52M764.16 430.52H981.16M981.16 430.52H452.16" stroke="#3B2801" stroke-width="2"/>
<path d="M678.552 233.168C649.154 353.953 823.087 353.488 787.805 233.168H788.136" stroke="#FFCCCC" stroke-width="5.05942" stroke-linecap="round" stroke-linejoin="round"/>
<path d="M678.114 233.428C647.761 357.495 824.603 357.016 788.175 233.428" stroke="#CCCCCC" stroke-width="5.21048" stroke-linecap="round" stroke-linejoin="round"/>
<path d="M789.539 233.182C789.535 236.287 783.636 239.266 773.136 241.463C762.637 243.661 748.395 244.9 733.532 244.906C718.67 244.913 704.401 243.688 693.857 241.499C683.312 239.311 677.352 236.338 677.284 233.232C677.219 230.126 683.053 227.142 693.506 224.933C703.96 222.725 718.179 221.473 733.044 221.453C747.908 221.433 762.203 222.645 772.795 224.824C783.386 227.003 789.408 229.971 789.539 233.077" stroke="#CCCCCC" stroke-width="2.56932" stroke-linecap="round" stroke-linejoin="round"/>
<path d="M679.592 231.232C693.853 218.936 773.868 219.124 787.317 231.052" stroke="#FFCCCC" stroke-width="1.61025" stroke-linecap="round" stroke-linejoin="round"/>
<path d="M680.973 229.823C679.564 229.97 678.464 231.203 678.464 232.687C678.464 234.27 679.716 235.551 681.259 235.551C681.418 235.551 681.568 235.527 681.72 235.5V229.857C681.567 229.831 681.419 229.824 681.259 229.824C681.163 229.824 681.067 229.814 680.973 229.823Z" fill="#FFCCCC" stroke="#FFCCCC" stroke-width="0.521812" stroke-linecap="round" stroke-linejoin="round"/>
<path d="M785.869 229.634C787.275 229.785 788.372 231.059 788.372 232.591C788.372 234.226 787.124 235.549 785.584 235.549C785.425 235.549 785.276 235.524 785.125 235.497V229.668C785.277 229.641 785.424 229.634 785.584 229.634C785.68 229.634 785.775 229.624 785.869 229.634Z" fill="#FFCCCC" stroke="#FFCCCC" stroke-width="0.529681" stroke-linecap="round" stroke-linejoin="round"/>
<path d="M763.483 237.665C755.504 255.557 747.986 272.775 742.577 285.542C737.168 298.309 734.312 305.581 734.633 305.764C734.955 305.947 738.429 299.024 744.294 286.516C750.158 274.007 757.933 256.934 765.914 239.043C773.894 221.152 781.427 203.904 786.861 191.083C792.295 178.262 795.186 170.916 794.899 170.655C794.612 170.395 791.17 177.242 785.33 189.695C779.489 202.147 771.727 219.188 763.745 237.078" fill="#AA4400"/>
<path d="M761.631 218.348C760.135 221.933 759.681 225.781 760.367 229.047C761.053 232.313 762.824 234.73 765.291 235.768C767.758 236.806 770.719 236.38 773.525 234.583C776.332 232.787 778.753 229.767 780.26 226.186C781.765 222.605 782.233 218.755 781.559 215.482C780.885 212.208 779.124 209.778 776.664 208.725C774.204 207.671 771.244 208.081 768.435 209.863C765.626 211.645 763.197 214.654 761.68 218.231" fill="#008000"/>
<path d="M708.54 234.016C716.519 251.908 724.037 269.126 729.446 281.893C734.854 294.66 737.711 301.932 737.389 302.115C737.068 302.297 733.594 295.375 727.729 282.867C721.865 270.358 714.09 253.285 706.109 235.394C698.129 217.503 690.595 200.255 685.161 187.434C679.727 174.613 676.837 167.266 677.124 167.006C677.411 166.746 680.853 173.593 686.693 186.046C692.534 198.498 700.296 215.539 708.278 233.429" fill="#AA4400"/>
<path d="M705.707 196.138C705.847 196.137 705.985 196.143 706.124 196.145L706.47 241.549C706.331 241.553 706.193 241.562 706.053 241.563C693.862 241.656 683.899 231.562 683.803 219.019L683.802 218.821C683.812 206.354 693.59 196.23 705.707 196.138Z" fill="#CA9494"/>
<path d="M688.191 240.105C698.769 243.127 715.615 244.911 733.532 244.909C751.366 244.896 768.108 243.112 778.637 240.105" stroke="#CCCCCC" stroke-width="2.56932" stroke-linecap="round" stroke-linejoin="round"/>
<path d="M705.657 200.45C705.77 200.45 705.882 200.455 705.994 200.456L706.275 237.234C706.162 237.236 706.051 237.244 705.937 237.245C696.062 237.32 687.992 229.144 687.915 218.984L687.914 218.824C687.922 208.725 695.842 200.525 705.657 200.45Z" fill="#FFFF90"/>
<path d="M678.808 443.267C692.592 418.476 779.257 420.188 789.238 443.267C790.552 445.476 790.641 450.146 789.238 452.737C767.028 475.251 693.143 471.653 678.808 452.737C677.146 450.713 676.939 445.008 678.808 443.267Z" fill="#CCCCCC" stroke="#CCCCCC" stroke-width="1.24044"/>
<path d="M683.737 448.607C701.482 462.056 756.479 465.413 783.994 449.328" stroke="#FFCCCC" stroke-width="1.5265" stroke-linecap="round" stroke-linejoin="round"/>
<path d="M701.636 437.206C714.989 432.808 725.859 423.585 728.894 399.146V324.487H738.629V399.146C742.838 417.414 749.326 433.113 766.104 437.206" fill="#CCCCCC"/>
<path d="M701.636 437.206C714.989 432.808 725.859 423.585 728.894 399.146V324.487H738.629V399.146C742.838 417.414 749.326 433.113 766.104 437.206" stroke="#FFCCCC" stroke-width="1.7645" stroke-linecap="round" stroke-linejoin="round"/>
</g>
<path d="M304.723 809.6L304.163 803.68L301.443 801.76L298.643 801.32H293.843L294.243 813.2L298.843 813.4L301.683 812.8L304.723 809.6ZM298.643 799.32L302.803 797.12L303.243 792.76L301.203 789.44L298.803 788.8L294.123 788.92L293.843 799.52L298.643 799.32ZM298.843 787L303.483 787.6L307.243 791.4V795.16L305.083 798.4L301.323 799.96V800.04L305.403 800.92L308.363 803.96L309.123 806.84L307.603 812.16L303.603 814.48L298.683 815.2L292.243 815L286.763 815.4L286.843 814L290.043 813L290.443 800.72L290.043 789L286.763 788.04L286.963 786.64L292.043 787H298.843ZM316.833 812.76L319.833 813.52L323.873 811.2L323.713 805.8H320.233L317.153 807.04L315.753 809.52L316.833 812.76ZM327.153 807.72L327.433 813.36L330.193 813.76L329.913 815.08L324.353 815.56L323.833 813.2H323.633L319.673 815.56H315.513L312.713 813.52L311.873 809.6L313.633 806.48L318.433 804.4L323.713 804.2L323.553 799.2L322.793 796.72L319.553 795.8L315.673 796.72L315.553 800.96L313.993 801.28L312.953 795.8L317.553 794.44L322.713 794.2L325.833 795.72L327.113 799.16L327.153 807.72ZM345.757 796.48L340.717 796.08L337.117 799.92L336.077 804.08L336.597 808.32L339.157 812.96L344.077 813.76L347.837 811.76L348.557 812.8L345.397 815.32L341.637 815.8L335.917 814.16L332.357 808.36L332.317 801.68L335.037 796.92L339.237 794.72L342.877 794.2L348.997 795L347.797 801.28L346.477 801.48L345.757 796.48ZM356.052 812.76L359.052 813.52L363.092 811.2L362.932 805.8H359.452L356.372 807.04L354.972 809.52L356.052 812.76ZM366.372 807.72L366.652 813.36L369.412 813.76L369.132 815.08L363.572 815.56L363.052 813.2H362.852L358.892 815.56H354.732L351.932 813.52L351.092 809.6L352.852 806.48L357.652 804.4L362.932 804.2L362.772 799.2L362.012 796.72L358.772 795.8L354.892 796.72L354.772 800.96L353.212 801.28L352.172 795.8L356.772 794.44L361.932 794.2L365.052 795.72L366.332 799.16L366.372 807.72ZM377.935 798.28H378.095L380.575 795.44L383.295 794.24L386.295 795L385.615 800.96L384.215 800.68L383.215 796.56L380.615 797.4L377.775 800.72L377.575 804.48L377.695 808.36L377.855 813L381.855 813.8L381.655 815.2L375.855 815L370.975 815.2L371.055 813.8L373.695 813L373.895 808.8L373.815 801.12L373.615 796.96L370.775 797.08L370.575 795.68L376.095 794.6L378.095 795.04L377.935 798.28ZM402.968 813.2H402.768L398.328 815.8L393.888 815.32L390.968 813.24L388.648 808.48L388.608 801.68L390.128 798.52L394.728 794.8L399.168 794.2L403.048 795.2L402.808 787.56L399.488 787.24L399.688 785.84L405.208 784.76L406.808 785.2L406.528 800.68L406.808 813.36L409.568 813.76L409.288 815.08L403.728 815.56L402.968 813.2ZM397.088 813.76L402.968 811.52L403.048 797.4L398.608 796L396.088 796.72L393.008 800L392.448 804.6L393.648 811.32L397.088 813.76ZM413.725 786.68L415.565 785.8L417.485 786.44L418.365 788.6L417.245 790.36L415.365 791.12L413.605 790.04L412.765 788.24L413.725 786.68ZM418.245 800.48L418.005 804.48L418.125 808.36L418.285 813L421.205 813.8L421.005 815.2L416.285 815L411.405 815.2L411.485 813.8L414.125 813L414.325 808.8L414.245 801.12L414.045 796.96L411.205 797.08L411.005 795.68L416.525 794.6L418.525 795.04L418.245 800.48ZM451.579 809.72L448.779 813.84L444.059 815.48H440.419L438.299 815.04L434.939 813.2L433.019 809.8V806.16L435.859 802.44L438.819 800.56L435.979 798.24L434.299 795.32L434.739 790.92L437.139 787.92L440.579 786.56L444.899 786.52L448.939 788.88L450.379 793.56L448.499 797.6L445.499 800L449.019 802.24L451.579 805.2V809.72ZM436.619 806.28L436.659 809L437.899 812.36L442.499 813.96L446.459 812.96L448.059 810.24L447.939 806.96L445.739 804.32L440.579 801.56L438.059 803.72L436.619 806.28ZM445.779 789.44L442.419 788.16L439.259 788.96L437.779 791.4L437.819 794.32L439.459 796.6L443.739 798.96L445.939 796.6L446.779 793.28L445.779 789.44ZM476.106 803.2L465.346 803.88L465.706 801.32L471.826 801.28L481.306 800.76L480.946 803.32L476.106 803.2ZM500.173 815L494.853 815.4L494.933 813.8L497.973 813L498.373 800.76L497.973 789L494.893 788.2L495.093 786.6L499.973 787L505.453 786.6L505.373 788.2L502.173 789L501.773 800.76L502.173 813.16L511.933 812.4L512.933 807.48L514.333 807.6L514.533 812.8L514.813 815L509.973 814.6L500.173 815ZM518.647 786.68L520.487 785.8L522.407 786.44L523.287 788.6L522.167 790.36L520.287 791.12L518.527 790.04L517.687 788.24L518.647 786.68ZM523.167 800.48L522.927 804.48L523.047 808.36L523.207 813L526.127 813.8L525.927 815.2L521.207 815L516.327 815.2L516.407 813.8L519.047 813L519.247 808.8L519.167 801.12L518.967 796.96L516.127 797.08L515.927 795.68L521.447 794.6L523.447 795.04L523.167 800.48ZM547.409 813.04L550.249 813.8L550.049 815.2L545.329 815L540.449 815.2L540.529 813.8L543.169 813L543.449 808.8L543.289 800.08L542.209 797.44L538.809 796.84L534.849 798.96L534.769 800.48L534.529 804.48L534.609 808.36L534.809 813L537.729 813.8L537.529 815.2L532.809 815L527.929 815.2L528.009 813.8L530.649 813L530.929 808.8L530.769 801.12L530.569 796.96L527.729 797.08L527.529 795.68L533.049 794.6L535.049 795.04L534.929 796.92L538.809 794.48L542.889 794.2L546.569 796.72L546.769 797.8L550.769 794.48L554.849 794.2L558.529 796.72L559.129 799.92L559.049 808.36L559.369 813.04L562.209 813.8L562.009 815.2L557.289 815L552.409 815.2L552.489 813.8L555.129 813L555.409 808.8L555.249 800.08L554.169 797.44L550.769 796.84L547.089 799.52L547.169 799.92L547.089 808.36L547.409 813.04ZM567.994 804.24L567.954 804.6L569.034 810.24L572.194 813.36L575.874 813.76L579.634 811.76L580.354 812.8L577.194 815.32L573.434 815.8L569.514 814.88L566.114 812.04L564.074 806.04L564.754 800.68L566.834 796.92L571.034 794.6L574.554 794.16L577.354 795.04L579.514 797L580.754 800.56L580.794 803.88L580.234 804.32L574.914 804.68L567.994 804.24ZM569.994 797.76L568.434 800.8L568.194 802.6L574.274 802.68L577.034 802.08L576.794 798.36L575.594 796.32L573.034 795.96L569.994 797.76ZM596.41 793.48L596.17 789L593.09 788.2L593.29 786.6L598.17 787L603.65 786.6L603.57 788.2L600.37 789L600.09 799.08L600.37 810.64L598.93 814.64L596.45 817L592.17 819.24L591.37 818.24L595.45 815.12L596.33 810.68L596.41 793.48ZM611.433 801.2V809.92L612.513 812.56L615.873 813L620.233 810.4V806.16L620.193 801.16L619.993 797L617.153 797.12L616.953 795.72L622.473 794.64L624.473 795.08L624.193 800.52L624.153 803.72L624.233 806.16V813.36L627.033 814.16L626.833 815.56H621.353L620.433 812.2L615.913 815.52L611.833 815.8L608.153 813.28L607.553 810.08L607.593 801.52L607.193 796.96L604.353 797.08L604.153 795.68L609.673 794.6L611.673 795.04L611.433 801.2ZM631.147 786.68L632.987 785.8L634.907 786.44L635.787 788.6L634.667 790.36L632.787 791.12L631.027 790.04L630.187 788.24L631.147 786.68ZM635.667 800.48L635.427 804.48L635.547 808.36L635.707 813L638.627 813.8L638.427 815.2L633.707 815L628.827 815.2L628.907 813.8L631.547 813L631.747 808.8L631.667 801.12L631.467 796.96L628.627 797.08L628.427 795.68L633.947 794.6L635.947 795.04L635.667 800.48ZM654.429 796.48L649.389 796.08L645.789 799.92L644.749 804.08L645.269 808.32L647.829 812.96L652.749 813.76L656.509 811.76L657.229 812.8L654.069 815.32L650.309 815.8L644.589 814.16L641.029 808.36L640.989 801.68L643.709 796.92L647.909 794.72L651.549 794.2L657.669 795L656.469 801.28L655.149 801.48L654.429 796.48ZM664.087 804.24L664.047 804.6L665.127 810.24L668.287 813.36L671.967 813.76L675.727 811.76L676.447 812.8L673.287 815.32L669.527 815.8L665.607 814.88L662.207 812.04L660.167 806.04L660.847 800.68L662.927 796.92L667.127 794.6L670.647 794.16L673.447 795.04L675.607 797L676.847 800.56L676.887 803.88L676.327 804.32L671.007 804.68L664.087 804.24ZM666.087 797.76L664.527 800.8L664.287 802.6L670.367 802.68L673.127 802.08L672.887 798.36L671.687 796.32L669.127 795.96L666.087 797.76ZM701.184 803.2L690.424 803.88L690.784 801.32L696.904 801.28L706.384 800.76L706.024 803.32L701.184 803.2ZM733.011 812.48L734.571 810.32L734.491 806.76L732.691 804.84L722.531 799.2L720.691 794.88L721.051 791.12L723.331 788.04L728.891 786.2L735.011 786.68L736.891 786.52L736.571 788.56L736.611 793.8L735.131 794.12L734.091 788.84L729.371 788.2L725.331 789.72L724.411 792.36L725.291 795.76L735.371 801.28L738.331 804.36L738.491 810.68L735.411 814.52L729.531 815.8L722.131 814.92L720.251 814.64L720.571 813.08L720.931 807.84L722.411 807.52L723.051 812.8L727.931 813.64L733.011 812.48ZM743.608 786.68L745.448 785.8L747.368 786.44L748.248 788.6L747.128 790.36L745.248 791.12L743.488 790.04L742.648 788.24L743.608 786.68ZM748.128 800.48L747.888 804.48L748.008 808.36L748.168 813L751.088 813.8L750.888 815.2L746.168 815L741.288 815.2L741.368 813.8L744.008 813L744.208 808.8L744.128 801.12L743.928 796.96L741.088 797.08L740.888 795.68L746.408 794.6L748.408 795.04L748.128 800.48ZM772.37 813.04L775.21 813.8L775.01 815.2L770.29 815L765.41 815.2L765.49 813.8L768.13 813L768.41 808.8L768.25 800.08L767.17 797.44L763.77 796.84L759.81 798.96L759.73 800.48L759.49 804.48L759.57 808.36L759.77 813L762.69 813.8L762.49 815.2L757.77 815L752.89 815.2L752.97 813.8L755.61 813L755.89 808.8L755.73 801.12L755.53 796.96L752.69 797.08L752.49 795.68L758.01 794.6L760.01 795.04L759.89 796.92L763.77 794.48L767.85 794.2L771.53 796.72L771.73 797.8L775.73 794.48L779.81 794.2L783.49 796.72L784.09 799.92L784.01 808.36L784.33 813.04L787.17 813.8L786.97 815.2L782.25 815L777.37 815.2L777.45 813.8L780.09 813L780.37 808.8L780.21 800.08L779.13 797.44L775.73 796.84L772.05 799.52L772.13 799.92L772.05 808.36L772.37 813.04ZM794.795 796.8H795.075L799.355 794.2L803.795 794.68L806.715 796.76L809.035 801.52L809.075 808.32L807.555 811.48L802.955 815.2L798.515 815.8L794.715 814.8L794.835 818.36L795.155 823L798.075 823.8L797.875 825.2L792.995 825L788.115 825.2L788.195 823.8L790.835 823L791.035 818.8L791.195 810.04L790.955 801.12L790.755 796.84L787.915 796.96L787.715 795.56L793.235 794.48L794.755 794.92L794.795 796.8ZM794.755 812.6L799.075 814L801.595 813.28L804.675 810L805.235 805.4L804.035 798.68L800.475 796.56L794.875 798.48L794.955 800.48L794.755 812.6ZM818.431 790.48L818.191 804.48L818.311 808.36L818.631 813L821.551 813.8L821.351 815.2L816.471 815L811.591 815.2L811.671 813.8L814.311 813L814.511 808.8L814.671 800.04L814.431 791.12L814.231 787.12L811.391 787.24L811.191 785.84L816.711 784.76L818.711 785.2L818.431 790.48ZM827.603 804.24L827.563 804.6L828.643 810.24L831.803 813.36L835.483 813.76L839.243 811.76L839.963 812.8L836.803 815.32L833.043 815.8L829.123 814.88L825.723 812.04L823.683 806.04L824.363 800.68L826.443 796.92L830.643 794.6L834.163 794.16L836.963 795.04L839.123 797L840.363 800.56L840.403 803.88L839.843 804.32L834.523 804.68L827.603 804.24ZM829.603 797.76L828.043 800.8L827.803 802.6L833.883 802.68L836.643 802.08L836.403 798.36L835.203 796.32L832.643 795.96L829.603 797.76ZM865.98 812.48L867.54 810.32L867.46 806.76L865.66 804.84L855.5 799.2L853.66 794.88L854.02 791.12L856.3 788.04L861.86 786.2L867.98 786.68L869.86 786.52L869.54 788.56L869.58 793.8L868.1 794.12L867.06 788.84L862.34 788.2L858.3 789.72L857.38 792.36L858.26 795.76L868.34 801.28L871.3 804.36L871.46 810.68L868.38 814.52L862.5 815.8L855.1 814.92L853.22 814.64L853.54 813.08L853.9 807.84L855.38 807.52L856.02 812.8L860.9 813.64L865.98 812.48ZM876.837 825.8L875.597 824L874.397 820.72L875.917 820.16L878.157 823.48L880.197 821.52L882.997 815.12L876.797 799.24L875.397 796.8L872.557 796.2L872.757 794.8L877.637 795L882.397 794.8L882.317 796.2L879.997 796.88L880.597 799.36L882.757 804.88L884.957 811.32H885.077L887.077 805.04L889.117 799.32L889.517 796.76L887.277 796.2L887.477 794.8L891.757 795L895.157 794.8L895.077 796.2L892.637 796.92L891.237 799.92L885.277 815.84L881.837 822.44L878.837 825.4L876.837 825.8ZM903.287 798.28H903.447L905.927 795.44L908.647 794.24L911.647 795L910.967 800.96L909.567 800.68L908.567 796.56L905.967 797.4L903.127 800.72L902.927 804.48L903.047 808.36L903.207 813L907.207 813.8L907.007 815.2L901.207 815L896.327 815.2L896.407 813.8L899.047 813L899.247 808.8L899.167 801.12L898.967 796.96L896.127 797.08L895.927 795.68L901.447 794.6L903.447 795.04L903.287 798.28ZM919.754 801.2V809.92L920.834 812.56L924.194 813L928.554 810.4V806.16L928.514 801.16L928.314 797L925.474 797.12L925.274 795.72L930.794 794.64L932.794 795.08L932.514 800.52L932.474 803.72L932.554 806.16V813.36L935.354 814.16L935.154 815.56H929.674L928.754 812.2L924.234 815.52L920.154 815.8L916.474 813.28L915.874 810.08L915.914 801.52L915.514 796.96L912.674 797.08L912.474 795.68L917.994 794.6L919.994 795.04L919.754 801.2ZM943.427 796.8H943.707L947.987 794.2L952.427 794.68L955.347 796.76L957.667 801.52L957.707 808.32L956.187 811.48L951.587 815.2L947.147 815.8L943.347 814.8L943.467 818.36L943.787 823L946.707 823.8L946.507 825.2L941.627 825L936.747 825.2L936.827 823.8L939.467 823L939.667 818.8L939.827 810.04L939.587 801.12L939.387 796.84L936.547 796.96L936.347 795.56L941.867 794.48L943.387 794.92L943.427 796.8ZM943.387 812.6L947.707 814L950.227 813.28L953.307 810L953.867 805.4L952.667 798.68L949.107 796.56L943.507 798.48L943.587 800.48L943.387 812.6ZM982.356 803.2L971.596 803.88L971.956 801.32L978.076 801.28L987.556 800.76L987.196 803.32L982.356 803.2ZM1010.86 789.72L1011.62 786.2L1013.58 785.88L1019.18 800.68L1024.34 813L1027.7 813.8L1027.5 815.4L1022.62 815L1016.54 815.4L1016.62 813.8L1019.9 813L1017.1 805.4L1012.26 805.24L1007.66 805.4L1005.06 813L1008.1 813.8L1007.9 815.4L1003.02 815L999.343 815.4L999.423 813.8L1002.54 813L1007.26 800.72L1010.86 789.72ZM1012.02 791.12L1008.38 803.2L1012.26 803.36L1016.3 803.2L1013.74 796.8L1012.1 791.12H1012.02ZM1034.01 796.8H1034.29L1038.57 794.2L1043.01 794.68L1045.93 796.76L1048.25 801.52L1048.29 808.32L1046.77 811.48L1042.17 815.2L1037.73 815.8L1033.93 814.8L1034.05 818.36L1034.37 823L1037.29 823.8L1037.09 825.2L1032.21 825L1027.33 825.2L1027.41 823.8L1030.05 823L1030.25 818.8L1030.41 810.04L1030.17 801.12L1029.97 796.84L1027.13 796.96L1026.93 795.56L1032.45 794.48L1033.97 794.92L1034.01 796.8ZM1033.97 812.6L1038.29 814L1040.81 813.28L1043.89 810L1044.45 805.4L1043.25 798.68L1039.69 796.56L1034.09 798.48L1034.17 800.48L1033.97 812.6ZM1057.49 796.8H1057.77L1062.05 794.2L1066.49 794.68L1069.41 796.76L1071.73 801.52L1071.77 808.32L1070.25 811.48L1065.65 815.2L1061.21 815.8L1057.41 814.8L1057.53 818.36L1057.85 823L1060.77 823.8L1060.57 825.2L1055.69 825L1050.81 825.2L1050.89 823.8L1053.53 823L1053.73 818.8L1053.89 810.04L1053.65 801.12L1053.45 796.84L1050.61 796.96L1050.41 795.56L1055.93 794.48L1057.45 794.92L1057.49 796.8ZM1057.45 812.6L1061.77 814L1064.29 813.28L1067.37 810L1067.93 805.4L1066.73 798.68L1063.17 796.56L1057.57 798.48L1057.65 800.48L1057.45 812.6ZM1081.13 790.48L1080.89 804.48L1081.01 808.36L1081.33 813L1084.25 813.8L1084.05 815.2L1079.17 815L1074.29 815.2L1074.37 813.8L1077.01 813L1077.21 808.8L1077.37 800.04L1077.13 791.12L1076.93 787.12L1074.09 787.24L1073.89 785.84L1079.41 784.76L1081.41 785.2L1081.13 790.48ZM1090.3 804.24L1090.26 804.6L1091.34 810.24L1094.5 813.36L1098.18 813.76L1101.94 811.76L1102.66 812.8L1099.5 815.32L1095.74 815.8L1091.82 814.88L1088.42 812.04L1086.38 806.04L1087.06 800.68L1089.14 796.92L1093.34 794.6L1096.86 794.16L1099.66 795.04L1101.82 797L1103.06 800.56L1103.1 803.88L1102.54 804.32L1097.22 804.68L1090.3 804.24ZM1092.3 797.76L1090.74 800.8L1090.5 802.6L1096.58 802.68L1099.34 802.08L1099.1 798.36L1097.9 796.32L1095.34 795.96L1092.3 797.76ZM1118.72 793.48L1118.48 789L1115.4 788.2L1115.6 786.6L1120.48 787L1125.96 786.6L1125.88 788.2L1122.68 789L1122.4 799.08L1122.68 810.64L1121.24 814.64L1118.76 817L1114.48 819.24L1113.68 818.24L1117.76 815.12L1118.64 810.68L1118.72 793.48ZM1133.74 801.2V809.92L1134.82 812.56L1138.18 813L1142.54 810.4V806.16L1142.5 801.16L1142.3 797L1139.46 797.12L1139.26 795.72L1144.78 794.64L1146.78 795.08L1146.5 800.52L1146.46 803.72L1146.54 806.16V813.36L1149.34 814.16L1149.14 815.56H1143.66L1142.74 812.2L1138.22 815.52L1134.14 815.8L1130.46 813.28L1129.86 810.08L1129.9 801.52L1129.5 796.96L1126.66 797.08L1126.46 795.68L1131.98 794.6L1133.98 795.04L1133.74 801.2ZM1153.45 786.68L1155.29 785.8L1157.21 786.44L1158.09 788.6L1156.97 790.36L1155.09 791.12L1153.33 790.04L1152.49 788.24L1153.45 786.68ZM1157.97 800.48L1157.73 804.48L1157.85 808.36L1158.01 813L1160.93 813.8L1160.73 815.2L1156.01 815L1151.13 815.2L1151.21 813.8L1153.85 813L1154.05 808.8L1153.97 801.12L1153.77 796.96L1150.93 797.08L1150.73 795.68L1156.25 794.6L1158.25 795.04L1157.97 800.48ZM1176.73 796.48L1171.69 796.08L1168.09 799.92L1167.05 804.08L1167.57 808.32L1170.13 812.96L1175.05 813.76L1178.81 811.76L1179.53 812.8L1176.37 815.32L1172.61 815.8L1166.89 814.16L1163.33 808.36L1163.29 801.68L1166.01 796.92L1170.21 794.72L1173.85 794.2L1179.97 795L1178.77 801.28L1177.45 801.48L1176.73 796.48ZM1186.39 804.24L1186.35 804.6L1187.43 810.24L1190.59 813.36L1194.27 813.76L1198.03 811.76L1198.75 812.8L1195.59 815.32L1191.83 815.8L1187.91 814.88L1184.51 812.04L1182.47 806.04L1183.15 800.68L1185.23 796.92L1189.43 794.6L1192.95 794.16L1195.75 795.04L1197.91 797L1199.15 800.56L1199.19 803.88L1198.63 804.32L1193.31 804.68L1186.39 804.24ZM1188.39 797.76L1186.83 800.8L1186.59 802.6L1192.67 802.68L1195.43 802.08L1195.19 798.36L1193.99 796.32L1191.43 795.96L1188.39 797.76Z" fill="#FFFEFD"/>
<path d="M474.532 849.94L471.682 852.61L467.452 853.48L464.992 853.24L462.412 852.37L463.162 847.45L464.242 847.6L464.752 851.47L467.212 852.01L470.572 851.14L471.922 847.66L471.202 844.84L468.862 843.07L466.432 842.71V841.51L468.742 841L470.602 839.26L471.172 836.26L470.362 834.13L468.142 833.05L465.112 833.71L464.542 837.4L463.462 837.55L462.772 832.81L467.362 831.4L470.962 831.88L473.602 834.1L473.932 836.71L473.272 838.96L471.952 840.82L469.462 841.84V841.96L472.972 842.95L474.862 845.71L474.532 849.94ZM489.913 852.1L486.883 853.36H484.303L480.673 851.74L478.483 847.9L477.943 844.66V839.68L480.133 834.61L483.583 831.7L486.763 831.58L489.343 832.69L492.043 835.81L493.153 841.84L492.943 846.49L491.593 849.91L489.913 852.1ZM484.063 833.08L482.173 835.87L480.973 841.27L481.543 846.91L482.563 850.45L484.483 852.13H486.613L488.503 850.72L489.403 847.99L490.003 842.56L489.043 835.45L486.703 832.84L484.063 833.08ZM505.053 848.86L506.223 833.5L503.763 832.9L503.913 831.85L507.573 832H509.523V832.6L514.203 844.27L515.553 848.2H515.613L516.813 844.48L521.553 832.6V832H523.353L527.463 831.85L527.403 832.9L524.913 833.5L526.233 848.5L526.773 851.56L528.813 852.1L528.663 853.15L525.003 853L520.893 853.15L520.953 852.1L523.113 851.59L523.203 848.8L522.933 844.3L522.093 835.3H521.943L520.773 838.96L515.883 851.62L516.363 853L514.923 853.6L514.353 852.19L508.773 838.87L507.603 835.3H507.483L506.853 844.99L506.733 848.92L506.793 851.53L508.983 852.13L508.833 853.18L505.683 853L502.473 853.15L502.533 852.1L504.603 851.5L505.053 848.86ZM534.542 853L530.552 853.3L530.612 852.1L532.892 851.5L533.192 842.32L532.892 833.5L530.582 832.9L530.732 831.7L534.392 832L538.502 831.7L538.442 832.9L536.042 833.5L535.742 842.32L536.042 851.62L543.362 851.05L544.112 847.36L545.162 847.45L545.312 851.35L545.522 853L541.892 852.7L534.542 853ZM584.314 844.15L576.244 844.66L576.514 842.74L581.104 842.71L588.214 842.32L587.944 844.24L584.314 844.15ZM625.612 835.72L625.462 843.28L625.522 848.89L625.702 851.5L628.552 852.1L628.402 853.15L624.232 853L619.972 853.15L620.032 852.1L622.582 851.77L622.762 848.14L622.732 837.58L622.522 834.37H619.432L619.522 833.14L624.802 831.97L625.912 832.3L625.612 835.72ZM642.872 852.1L639.842 853.36H637.262L633.632 851.74L631.442 847.9L630.902 844.66V839.68L633.092 834.61L636.542 831.7L639.722 831.58L642.302 832.69L645.002 835.81L646.112 841.84L645.902 846.49L644.552 849.91L642.872 852.1ZM637.022 833.08L635.132 835.87L633.932 841.27L634.502 846.91L635.522 850.45L637.442 852.13H639.572L641.462 850.72L642.362 847.99L642.962 842.56L642.002 835.45L639.662 832.84L637.022 833.08ZM658.012 848.86L659.182 833.5L656.722 832.9L656.872 831.85L660.532 832H662.482V832.6L667.162 844.27L668.512 848.2H668.572L669.772 844.48L674.512 832.6V832H676.312L680.422 831.85L680.362 832.9L677.872 833.5L679.192 848.5L679.732 851.56L681.772 852.1L681.622 853.15L677.962 853L673.852 853.15L673.912 852.1L676.072 851.59L676.162 848.8L675.892 844.3L675.052 835.3H674.902L673.732 838.96L668.842 851.62L669.322 853L667.882 853.6L667.312 852.19L661.732 838.87L660.562 835.3H660.442L659.812 844.99L659.692 848.92L659.752 851.53L661.942 852.13L661.792 853.18L658.642 853L655.432 853.15L655.492 852.1L657.562 851.5L658.012 848.86ZM687.501 853L683.511 853.3L683.571 852.1L685.851 851.5L686.151 842.32L685.851 833.5L683.541 832.9L683.691 831.7L687.351 832L691.461 831.7L691.401 832.9L689.001 833.5L688.701 842.32L689.001 851.62L696.321 851.05L697.071 847.36L698.121 847.45L698.271 851.35L698.481 853L694.851 852.7L687.501 853ZM737.273 844.15L729.203 844.66L729.473 842.74L734.063 842.71L741.173 842.32L740.903 844.24L737.273 844.15ZM783.821 850.84L784.481 847.66L785.441 847.75L785.861 853.3L783.491 853H774.011L773.561 853.3L772.481 853L772.661 851.35L780.431 842.11L782.141 836.8L781.541 833.77L778.001 833.14L775.271 833.77L774.881 837.52L773.621 837.79L772.871 832.63L778.211 831.4L782.951 832.15L785.051 834.19L785.351 838.03L782.681 843.04L775.091 851.05L775.181 851.14L783.821 850.84ZM800.548 852.1L797.518 853.36H794.938L791.308 851.74L789.118 847.9L788.578 844.66V839.68L790.768 834.61L794.218 831.7L797.398 831.58L799.978 832.69L802.678 835.81L803.788 841.84L803.578 846.49L802.228 849.91L800.548 852.1ZM794.698 833.08L792.808 835.87L791.608 841.27L792.178 846.91L793.198 850.45L795.118 852.13H797.248L799.138 850.72L800.038 847.99L800.638 842.56L799.678 835.45L797.338 832.84L794.698 833.08ZM815.688 848.86L816.858 833.5L814.398 832.9L814.548 831.85L818.208 832H820.158V832.6L824.838 844.27L826.188 848.2H826.248L827.448 844.48L832.188 832.6V832H833.988L838.098 831.85L838.038 832.9L835.548 833.5L836.868 848.5L837.408 851.56L839.448 852.1L839.298 853.15L835.638 853L831.528 853.15L831.588 852.1L833.748 851.59L833.838 848.8L833.568 844.3L832.728 835.3H832.578L831.408 838.96L826.518 851.62L826.998 853L825.558 853.6L824.988 852.19L819.408 838.87L818.238 835.3H818.118L817.488 844.99L817.368 848.92L817.428 851.53L819.618 852.13L819.468 853.18L816.318 853L813.108 853.15L813.168 852.1L815.238 851.5L815.688 848.86ZM845.177 853L841.187 853.3L841.247 852.1L843.527 851.5L843.827 842.32L843.527 833.5L841.217 832.9L841.367 831.7L845.027 832L849.137 831.7L849.077 832.9L846.677 833.5L846.377 842.32L846.677 851.62L853.997 851.05L854.747 847.36L855.797 847.45L855.947 851.35L856.157 853L852.527 852.7L845.177 853ZM894.949 844.15L886.879 844.66L887.149 842.74L891.739 842.71L898.849 842.32L898.579 844.24L894.949 844.15ZM936.246 835.72L936.096 843.28L936.156 848.89L936.336 851.5L939.186 852.1L939.036 853.15L934.866 853L930.606 853.15L930.666 852.1L933.216 851.77L933.396 848.14L933.366 837.58L933.156 834.37H930.066L930.156 833.14L935.436 831.97L936.546 832.3L936.246 835.72ZM952.307 850.84L952.967 847.66L953.927 847.75L954.347 853.3L951.977 853H942.497L942.047 853.3L940.967 853L941.147 851.35L948.917 842.11L950.627 836.8L950.027 833.77L946.487 833.14L943.757 833.77L943.367 837.52L942.107 837.79L941.357 832.63L946.697 831.4L951.437 832.15L953.537 834.19L953.837 838.03L951.167 843.04L943.577 851.05L943.667 851.14L952.307 850.84ZM969.034 852.1L966.004 853.36H963.424L959.794 851.74L957.604 847.9L957.064 844.66V839.68L959.254 834.61L962.704 831.7L965.884 831.58L968.464 832.69L971.164 835.81L972.274 841.84L972.064 846.49L970.714 849.91L969.034 852.1ZM963.184 833.08L961.294 835.87L960.094 841.27L960.664 846.91L961.684 850.45L963.604 852.13H965.734L967.624 850.72L968.524 847.99L969.124 842.56L968.164 835.45L965.824 832.84L963.184 833.08ZM984.174 848.86L985.344 833.5L982.884 832.9L983.034 831.85L986.694 832H988.644V832.6L993.324 844.27L994.674 848.2H994.734L995.934 844.48L1000.67 832.6V832H1002.47L1006.58 831.85L1006.52 832.9L1004.03 833.5L1005.35 848.5L1005.89 851.56L1007.93 852.1L1007.78 853.15L1004.12 853L1000.01 853.15L1000.07 852.1L1002.23 851.59L1002.32 848.8L1002.05 844.3L1001.21 835.3H1001.06L999.894 838.96L995.004 851.62L995.484 853L994.044 853.6L993.474 852.19L987.894 838.87L986.724 835.3H986.604L985.974 844.99L985.854 848.92L985.914 851.53L988.104 852.13L987.954 853.18L984.804 853L981.594 853.15L981.654 852.1L983.724 851.5L984.174 848.86ZM1013.66 853L1009.67 853.3L1009.73 852.1L1012.01 851.5L1012.31 842.32L1012.01 833.5L1009.7 832.9L1009.85 831.7L1013.51 832L1017.62 831.7L1017.56 832.9L1015.16 833.5L1014.86 842.32L1015.16 851.62L1022.48 851.05L1023.23 847.36L1024.28 847.45L1024.43 851.35L1024.64 853L1021.01 852.7L1013.66 853Z" fill="#FFFEFD"/>
<path d="M649.792 760.442L644.08 764.326L633.227 765.582L622.431 760.442L618.376 753.073L617.233 745.705V739.878L620.318 732.396L627.686 725.427L635.512 723.256H641.909L650.648 725.484L649.62 728.397L648.821 735.309L646.65 735.48L645.336 727.483L641.109 726.398H634.255L625.687 733.709L623.802 743.077L624.602 751.759L627.915 757.871L633.855 762.555L643.166 761.755L648.478 758.557L649.792 760.442ZM652.982 753.587V746.104L656.352 739.307L662.807 735.023L670.632 734.738L677.772 739.022L681.485 745.876L680.8 756.329L676.573 763.069L667.719 765.582L660.294 764.154L654.867 759.242L652.982 753.587ZM659.266 744.162L658.98 750.56L659.665 757.186L662.122 761.47L668.176 762.955L673.774 760.499L675.43 751.588L674.859 744.162L672.746 739.421L668.576 737.308L662.864 737.936L659.266 744.162ZM705.257 737.993L698.06 737.422L692.919 742.906L691.434 748.846L692.176 754.901L695.832 761.527L702.858 762.669L708.227 759.813L709.255 761.298L704.743 764.897L699.374 765.582L691.205 763.24L686.122 754.958L686.065 745.419L689.949 738.622L695.946 735.48L701.144 734.738L709.884 735.88L708.17 744.848L706.285 745.133L705.257 737.993ZM729.554 742.049L732.182 738.222L728.355 737.594L728.64 735.594L734.638 735.88L739.893 735.594L739.779 737.594L735.78 738.85L727.612 747.647L732.353 754.33L738.237 761.584L741.607 762.726L741.321 764.726L735.381 764.44L729.954 764.726L730.068 762.726L732.81 762.555L731.268 759.699L724.642 750.903H721.843L721.957 754.958L722.072 761.584L726.013 762.726L725.67 764.726L719.33 764.44L712.019 764.726L712.247 762.726L716.245 761.755L716.417 755.586L716.645 743.077L716.417 730.339L716.131 724.627L712.076 724.799L711.79 722.8L719.673 721.257L722.529 721.886L722.129 729.425L721.786 748.675H723.557L729.554 742.049ZM756.921 765.011L753.037 765.582L748.981 764.212L747.154 759.642L747.439 749.018L747.154 739.421L743.212 738.85L742.87 736.851L747.382 735.652L749.438 729.882H752.352L752.18 736.28L759.092 736.508L758.749 739.022L752.751 739.421L752.523 742.049L752.751 759.356L753.894 762.784L759.263 761.356L760.12 763.069L756.921 765.011ZM769.101 761.241L773.385 762.327L779.155 759.014L778.926 751.302H773.957L769.558 753.073L767.559 756.615L769.101 761.241ZM783.838 754.044L784.238 762.098L788.18 762.669L787.78 764.554L779.84 765.24L779.097 761.87H778.812L773.157 765.24H767.217L763.218 762.327L762.019 756.729L764.532 752.273L771.386 749.303L778.926 749.018L778.698 741.878L777.612 738.336L772.986 737.022L767.445 738.336L767.274 744.391L765.046 744.848L763.561 737.022L770.13 735.08L777.498 734.738L781.953 736.908L783.781 741.82L783.838 754.044ZM793.726 723.999L796.353 722.742L799.095 723.656L800.351 726.741L798.752 729.254L796.067 730.339L793.554 728.797L792.355 726.227L793.726 723.999ZM800.18 743.705L799.837 749.417L800.009 754.958L800.237 761.584L804.407 762.726L804.121 764.726L797.381 764.44L790.413 764.726L790.527 762.726L794.297 761.584L794.582 755.586L794.468 744.619L794.183 738.679L790.127 738.85L789.841 736.851L797.724 735.309L800.58 735.937L800.18 743.705ZM816.176 729.425L815.833 749.417L816.005 754.958L816.462 761.584L820.631 762.726L820.346 764.726L813.377 764.44L806.408 764.726L806.523 762.726L810.293 761.584L810.578 755.586L810.807 743.077L810.464 730.339L810.178 724.627L806.123 724.799L805.837 722.8L813.72 721.257L816.576 721.886L816.176 729.425ZM848.312 731.539L848.026 745.933L848.14 756.615L848.483 761.584L853.91 762.726L853.624 764.726L845.684 764.44L837.573 764.726L837.687 762.726L842.543 762.098L842.885 755.187L842.828 735.08L842.428 728.968H836.545L836.716 726.627L846.77 724.399L848.883 725.027L848.312 731.539Z" fill="#FFFEFD"/>
<defs>
<clipPath id="clip0_44_3">
<rect width="123.735" height="301.928" fill="white" transform="translate(672 167)"/>
</clipPath>
</defs>
</svg>
